<?xml version="1.0" encoding="UTF-8"?>
<svg id="Layer_2" data-name="Layer 2" xmlns="http://www.w3.org/2000/svg" xmlns:xlink="http://www.w3.org/1999/xlink" viewBox="0 0 764.82 683.13">
  <defs>
    <style>
      .cls-1 {
        fill: url(#linear-gradient-38);
      }

      .cls-1, .cls-2, .cls-3, .cls-4, .cls-5, .cls-6, .cls-7, .cls-8, .cls-9, .cls-10, .cls-11, .cls-12, .cls-13, .cls-14, .cls-15, .cls-16, .cls-17, .cls-18, .cls-19, .cls-20, .cls-21, .cls-22, .cls-23, .cls-24, .cls-25, .cls-26, .cls-27, .cls-28, .cls-29, .cls-30, .cls-31, .cls-32, .cls-33, .cls-34 {
        stroke-width: 0px;
      }

      .cls-2 {
        fill: url(#linear-gradient-12);
      }

      .cls-3 {
        fill: url(#linear-gradient-62);
      }

      .cls-35 {
        stroke: url(#linear-gradient-57);
      }

      .cls-35, .cls-36, .cls-37, .cls-38, .cls-39, .cls-40, .cls-41, .cls-42, .cls-43, .cls-44, .cls-45, .cls-46, .cls-47, .cls-48, .cls-49, .cls-50, .cls-51, .cls-52, .cls-53, .cls-54, .cls-55, .cls-56, .cls-57, .cls-58, .cls-59, .cls-60, .cls-61, .cls-62, .cls-63, .cls-64, .cls-65, .cls-66 {
        fill: none;
        stroke-miterlimit: 10;
        stroke-width: 1.5px;
      }

      .cls-4 {
        fill: url(#linear-gradient-6);
      }

      .cls-36 {
        stroke: url(#linear-gradient-37);
      }

      .cls-37 {
        stroke: url(#linear-gradient-15);
      }

      .cls-38 {
        stroke: url(#linear-gradient);
      }

      .cls-39 {
        stroke: url(#linear-gradient-61);
      }

      .cls-40 {
        stroke: url(#linear-gradient-55);
      }

      .cls-41 {
        stroke: url(#linear-gradient-23);
      }

      .cls-5 {
        fill: url(#linear-gradient-42);
      }

      .cls-42 {
        stroke: url(#linear-gradient-41);
      }

      .cls-43 {
        stroke: url(#linear-gradient-53);
      }

      .cls-44 {
        stroke: url(#linear-gradient-51);
      }

      .cls-45 {
        stroke: url(#linear-gradient-17);
      }

      .cls-46 {
        stroke: url(#linear-gradient-43);
      }

      .cls-47 {
        stroke: url(#linear-gradient-11);
      }

      .cls-48 {
        stroke: url(#linear-gradient-19);
      }

      .cls-6 {
        fill: url(#linear-gradient-58);
      }

      .cls-49 {
        stroke: url(#linear-gradient-45);
      }

      .cls-7 {
        fill: url(#linear-gradient-63);
      }

      .cls-8 {
        fill: url(#linear-gradient-34);
      }

      .cls-9 {
        fill: url(#linear-gradient-40);
      }

      .cls-10 {
        fill: url(#linear-gradient-66);
      }

      .cls-50 {
        stroke: url(#linear-gradient-59);
      }

      .cls-51 {
        stroke: url(#linear-gradient-33);
      }

      .cls-11 {
        fill: url(#linear-gradient-16);
      }

      .cls-12 {
        fill: url(#linear-gradient-22);
      }

      .cls-13 {
        fill: url(#linear-gradient-54);
      }

      .cls-14 {
        fill: url(#linear-gradient-50);
      }

      .cls-15 {
        fill: url(#linear-gradient-32);
      }

      .cls-16 {
        fill: url(#linear-gradient-60);
      }

      .cls-17 {
        fill: url(#linear-gradient-20);
      }

      .cls-52 {
        stroke: url(#linear-gradient-29);
      }

      .cls-18 {
        fill: url(#linear-gradient-14);
      }

      .cls-19 {
        fill: url(#linear-gradient-2);
      }

      .cls-53 {
        stroke: url(#linear-gradient-7);
      }

      .cls-20 {
        fill: url(#linear-gradient-52);
      }

      .cls-54 {
        stroke: url(#linear-gradient-39);
      }

      .cls-55 {
        stroke: url(#linear-gradient-3);
      }

      .cls-56 {
        stroke: url(#linear-gradient-5);
      }

      .cls-21 {
        fill: url(#linear-gradient-65);
      }

      .cls-22 {
        fill: url(#linear-gradient-36);
      }

      .cls-23 {
        fill: url(#linear-gradient-48);
      }

      .cls-57 {
        stroke: url(#linear-gradient-25);
      }

      .cls-24 {
        fill: url(#linear-gradient-8);
      }

      .cls-25 {
        fill: url(#linear-gradient-24);
      }

      .cls-26 {
        fill: url(#linear-gradient-26);
      }

      .cls-27 {
        fill: url(#linear-gradient-18);
      }

      .cls-58 {
        stroke: url(#linear-gradient-49);
      }

      .cls-59 {
        stroke: url(#linear-gradient-13);
      }

      .cls-60 {
        stroke: url(#linear-gradient-64);
      }

      .cls-28 {
        fill: url(#linear-gradient-30);
      }

      .cls-29 {
        fill: url(#linear-gradient-44);
      }

      .cls-61 {
        stroke: url(#linear-gradient-47);
      }

      .cls-30 {
        fill: url(#linear-gradient-46);
      }

      .cls-62 {
        stroke: url(#linear-gradient-35);
      }

      .cls-63 {
        stroke: url(#linear-gradient-21);
      }

      .cls-31 {
        fill: url(#linear-gradient-28);
      }

      .cls-32 {
        fill: url(#linear-gradient-56);
      }

      .cls-33 {
        fill: url(#linear-gradient-10);
      }

      .cls-64 {
        stroke: url(#linear-gradient-9);
      }

      .cls-65 {
        stroke: url(#linear-gradient-27);
      }

      .cls-34 {
        fill: url(#linear-gradient-4);
      }

      .cls-66 {
        stroke: url(#linear-gradient-31);
      }
    </style>
    <linearGradient id="linear-gradient" x1="329.89" y1="0" x2="329.89" y2="622.36" gradientUnits="userSpaceOnUse">
      <stop offset="0" stop-color="#5082c2" stop-opacity="0"/>
      <stop offset=".04" stop-color="#498ac6" stop-opacity=".08"/>
      <stop offset=".14" stop-color="#38a0d3" stop-opacity=".29"/>
      <stop offset=".25" stop-color="#29b4df" stop-opacity=".48"/>
      <stop offset=".36" stop-color="#1cc5e9" stop-opacity=".64"/>
      <stop offset=".48" stop-color="#12d2f1" stop-opacity=".77"/>
      <stop offset=".59" stop-color="#0addf7" stop-opacity=".87"/>
      <stop offset=".71" stop-color="#04e5fb" stop-opacity=".94"/>
      <stop offset=".84" stop-color="#01e9fe" stop-opacity=".99"/>
      <stop offset=".98" stop-color="#00ebff" stop-opacity="1"/>
      <stop offset=".98" stop-color="#0bdbf6" stop-opacity="1"/>
      <stop offset=".98" stop-color="#24bbe3" stop-opacity="1"/>
      <stop offset=".99" stop-color="#37a2d4" stop-opacity="1"/>
      <stop offset=".99" stop-color="#4591ca" stop-opacity="1"/>
      <stop offset="1" stop-color="#4d86c4" stop-opacity="1"/>
      <stop offset="1" stop-color="#5083c2"/>
    </linearGradient>
    <linearGradient id="linear-gradient-2" x1="329.89" y1="0" x2="329.89" y2="622.36" xlink:href="#linear-gradient"/>
    <linearGradient id="linear-gradient-3" x1="296.53" x2="296.53" y2="683.13" xlink:href="#linear-gradient"/>
    <linearGradient id="linear-gradient-4" x1="296.25" y1="0" x2="296.25" y2="683.13" xlink:href="#linear-gradient"/>
    <linearGradient id="linear-gradient-5" x1="262.39" x2="262.39" y2="465.15" xlink:href="#linear-gradient"/>
    <linearGradient id="linear-gradient-6" x1="235.03" y1="0" x2="235.03" y2="465.15" xlink:href="#linear-gradient"/>
    <linearGradient id="linear-gradient-7" x1="139.13" x2="139.13" y2="284.93" xlink:href="#linear-gradient"/>
    <linearGradient id="linear-gradient-8" x1="152.67" y1="0" x2="152.67" y2="284.93" xlink:href="#linear-gradient"/>
    <linearGradient id="linear-gradient-9" x1="181.62" x2="181.62" y2="520.32" xlink:href="#linear-gradient"/>
    <linearGradient id="linear-gradient-10" x1="183.5" y1="0" x2="183.5" y2="520.32" xlink:href="#linear-gradient"/>
    <linearGradient id="linear-gradient-11" x1="241.41" x2="241.41" y2="211.83" xlink:href="#linear-gradient"/>
    <linearGradient id="linear-gradient-12" x1="241.41" y1="0" x2="241.41" y2="211.83" xlink:href="#linear-gradient"/>
    <linearGradient id="linear-gradient-13" x1="47.11" x2="47.11" y2="351.88" xlink:href="#linear-gradient"/>
    <linearGradient id="linear-gradient-14" x1="33.57" y1="0" x2="33.57" y2="351.88" xlink:href="#linear-gradient"/>
    <linearGradient id="linear-gradient-15" x1="20.03" x2="20.03" y2="391.88" xlink:href="#linear-gradient"/>
    <linearGradient id="linear-gradient-16" x1="6.49" y1="0" x2="6.49" y2="391.88" xlink:href="#linear-gradient"/>
    <linearGradient id="linear-gradient-17" x1="355.27" x2="355.27" y2="295.92" xlink:href="#linear-gradient"/>
    <linearGradient id="linear-gradient-18" x1="324.77" y1="0" x2="324.77" y2="295.92" xlink:href="#linear-gradient"/>
    <linearGradient id="linear-gradient-19" x1="364.51" x2="364.51" y2="428.18" xlink:href="#linear-gradient"/>
    <linearGradient id="linear-gradient-20" x1="321.17" y1="0" x2="321.17" y2="428.18" xlink:href="#linear-gradient"/>
    <linearGradient id="linear-gradient-21" x1="408.32" x2="408.32" y2="465.15" xlink:href="#linear-gradient"/>
    <linearGradient id="linear-gradient-22" x1="385.67" y1="0" x2="385.67" y2="465.15" xlink:href="#linear-gradient"/>
    <linearGradient id="linear-gradient-23" x1="621.05" x2="621.05" y2="355.8" xlink:href="#linear-gradient"/>
    <linearGradient id="linear-gradient-24" x1="593.46" y1="0" x2="593.46" y2="355.8" xlink:href="#linear-gradient"/>
    <linearGradient id="linear-gradient-25" x1="571.54" x2="571.54" y2="511.4" xlink:href="#linear-gradient"/>
    <linearGradient id="linear-gradient-26" x1="525.54" y1="0" x2="525.54" y2="511.4" xlink:href="#linear-gradient"/>
    <linearGradient id="linear-gradient-27" x1="536.97" x2="536.97" y2="473.78" xlink:href="#linear-gradient"/>
    <linearGradient id="linear-gradient-28" x1="484.02" y1="0" x2="484.02" y2="473.78" xlink:href="#linear-gradient"/>
    <linearGradient id="linear-gradient-29" x1="563.03" x2="563.03" y2="85.68" xlink:href="#linear-gradient"/>
    <linearGradient id="linear-gradient-30" x1="563.03" y1="0" x2="563.03" y2="85.68" xlink:href="#linear-gradient"/>
    <linearGradient id="linear-gradient-31" x1="532.87" x2="532.87" y2="115.68" xlink:href="#linear-gradient"/>
    <linearGradient id="linear-gradient-32" x1="532.87" y1="0" x2="532.87" y2="115.68" xlink:href="#linear-gradient"/>
    <linearGradient id="linear-gradient-33" x1="360.36" x2="360.36" y2="115.68" xlink:href="#linear-gradient"/>
    <linearGradient id="linear-gradient-34" x1="360.36" y1="0" x2="360.36" y2="115.68" xlink:href="#linear-gradient"/>
    <linearGradient id="linear-gradient-35" x1="454.45" y1="157.09" x2="454.45" y2="400.43" xlink:href="#linear-gradient"/>
    <linearGradient id="linear-gradient-36" x1="454.45" y1="157.09" x2="454.45" y2="400.43" xlink:href="#linear-gradient"/>
    <linearGradient id="linear-gradient-37" x1="383.91" y1="306.33" x2="383.91" y2="409.35" xlink:href="#linear-gradient"/>
    <linearGradient id="linear-gradient-38" x1="354.78" y1="306.33" x2="354.78" y2="409.35" xlink:href="#linear-gradient"/>
    <linearGradient id="linear-gradient-39" x1="467.82" x2="467.82" y2="292.43" xlink:href="#linear-gradient"/>
    <linearGradient id="linear-gradient-40" x1="483.83" y1="0" x2="483.83" y2="292.43" xlink:href="#linear-gradient"/>
    <linearGradient id="linear-gradient-41" x1="494.11" x2="494.11" y2="192.35" xlink:href="#linear-gradient"/>
    <linearGradient id="linear-gradient-42" x1="509.68" y1="0" x2="509.68" y2="192.35" xlink:href="#linear-gradient"/>
    <linearGradient id="linear-gradient-43" x1="505.97" x2="505.97" y2="62.84" xlink:href="#linear-gradient"/>
    <linearGradient id="linear-gradient-44" x1="505.97" y1="0" x2="505.97" y2="62.84" xlink:href="#linear-gradient"/>
    <linearGradient id="linear-gradient-45" x1="188.16" x2="188.16" y2="62.84" xlink:href="#linear-gradient"/>
    <linearGradient id="linear-gradient-46" x1="188.16" y1="0" x2="188.16" y2="62.84" xlink:href="#linear-gradient"/>
    <linearGradient id="linear-gradient-47" x1="6.49" x2="6.49" y2="62.84" xlink:href="#linear-gradient"/>
    <linearGradient id="linear-gradient-48" x1="6.49" y1="0" x2="6.49" y2="62.84" xlink:href="#linear-gradient"/>
    <linearGradient id="linear-gradient-49" x1="94.23" y1="201.15" x2="94.23" y2="263.99" xlink:href="#linear-gradient"/>
    <linearGradient id="linear-gradient-50" x1="94.23" y1="201.15" x2="94.23" y2="263.99" xlink:href="#linear-gradient"/>
    <linearGradient id="linear-gradient-51" x1="214.28" x2="214.28" y2="190.24" xlink:href="#linear-gradient"/>
    <linearGradient id="linear-gradient-52" x1="214.28" y1="0" x2="214.28" y2="190.24" xlink:href="#linear-gradient"/>
    <linearGradient id="linear-gradient-53" x1="74.88" x2="74.88" y2="437.09" xlink:href="#linear-gradient"/>
    <linearGradient id="linear-gradient-54" x1="66.78" y1="0" x2="66.78" y2="437.09" xlink:href="#linear-gradient"/>
    <linearGradient id="linear-gradient-55" x1="111.53" x2="111.53" y2="328.6" xlink:href="#linear-gradient"/>
    <linearGradient id="linear-gradient-56" x1="121.59" y1="0" x2="121.59" y2="328.6" xlink:href="#linear-gradient"/>
    <linearGradient id="linear-gradient-57" x1="706.67" x2="706.67" y2="377.64" xlink:href="#linear-gradient"/>
    <linearGradient id="linear-gradient-58" x1="736.39" y1="0" x2="736.39" y2="377.64" xlink:href="#linear-gradient"/>
    <linearGradient id="linear-gradient-59" x1="736.39" x2="736.39" y2="147.65" xlink:href="#linear-gradient"/>
    <linearGradient id="linear-gradient-60" x1="759.18" y1="0" x2="759.18" y2="147.65" xlink:href="#linear-gradient"/>
    <linearGradient id="linear-gradient-61" x1="694.67" y1="177.67" x2="694.67" y2="477.72" xlink:href="#linear-gradient"/>
    <linearGradient id="linear-gradient-62" x1="713.61" y1="177.67" x2="713.61" y2="477.72" xlink:href="#linear-gradient"/>
    <linearGradient id="linear-gradient-63" x1="675.74" y1="177.67" x2="675.74" y2="477.72" xlink:href="#linear-gradient"/>
    <linearGradient id="linear-gradient-64" x1="666.37" y1="73.07" x2="666.37" y2="413.31" xlink:href="#linear-gradient"/>
    <linearGradient id="linear-gradient-65" x1="619.14" y1="73.07" x2="619.14" y2="413.31" xlink:href="#linear-gradient"/>
    <linearGradient id="linear-gradient-66" x1="648.45" y1="73.07" x2="648.45" y2="413.31" xlink:href="#linear-gradient"/>
  </defs>
  <g id="object">
    <g>
      <g>
        <polyline class="cls-38" points="326.97 0 326.97 130.16 356.97 175.94 356.97 242.01 302.81 276.36 302.81 465.15 329.89 504.78 329.89 617"/>
        <circle class="cls-19" cx="329.89" cy="616.72" r="5.64"/>
      </g>
      <g>
        <polyline class="cls-55" points="293.33 0 293.33 130.93 323.89 177.48 323.33 236.6 269.17 272.27 269.17 465.15 296.25 504.78 296.25 677.77"/>
        <circle class="cls-34" cx="296.25" cy="677.49" r="5.64"/>
      </g>
      <g>
        <polyline class="cls-56" points="259.19 0 259.19 130.93 289.75 177.48 289.19 236.6 235.03 272.27 235.03 459.79"/>
        <circle class="cls-4" cx="235.03" cy="459.51" r="5.64"/>
      </g>
      <g>
        <polyline class="cls-53" points="152.67 278.77 152.67 106.58 125.59 66.95 125.59 0"/>
        <circle class="cls-24" cx="152.67" cy="278.45" r="6.49"/>
      </g>
      <g>
        <polyline class="cls-64" points="155.06 0 155.06 66.95 182.14 106.58 182.14 284.93 208.17 310.96 208.17 400.43 183.5 425.1 183.5 514.16"/>
        <path class="cls-33" d="m177.01,513.84c0,3.58,2.9,6.49,6.49,6.49s6.49-2.9,6.49-6.49-2.9-6.49-6.49-6.49-6.49,2.9-6.49,6.49Z"/>
      </g>
      <g>
        <line class="cls-47" x1="241.41" x2="241.41" y2="206.47"/>
        <circle class="cls-2" cx="241.41" cy="206.19" r="5.64"/>
      </g>
      <g>
        <polyline class="cls-59" points="33.57 345.72 33.57 173.53 60.65 133.9 60.65 0"/>
        <path class="cls-18" d="m40.05,345.4c0,3.58-2.9,6.49-6.49,6.49s-6.49-2.9-6.49-6.49,2.9-6.49,6.49-6.49,6.49,2.9,6.49,6.49Z"/>
      </g>
      <g>
        <polyline class="cls-37" points="6.49 385.72 6.49 173.53 33.57 133.9 33.57 0"/>
        <path class="cls-11" d="m12.97,385.4c0,3.58-2.9,6.49-6.49,6.49s-6.49-2.9-6.49-6.49,2.9-6.49,6.49-6.49,6.49,2.9,6.49,6.49Z"/>
      </g>
      <g>
        <path class="cls-45" d="m385.67,0v250.84l-61.13,41.45"/>
        <path class="cls-27" d="m321.6,287.46c-2.58,1.75-3.25,5.26-1.5,7.83,1.75,2.58,5.26,3.25,7.83,1.5,2.58-1.75,3.25-5.26,1.5-7.83-1.75-2.58-5.26-3.25-7.83-1.5Z"/>
      </g>
      <g>
        <polyline class="cls-48" points="407.84 0 407.84 272.56 321.17 328.12 321.17 422.82"/>
        <circle class="cls-17" cx="321.17" cy="422.54" r="5.64"/>
      </g>
      <g>
        <polyline class="cls-63" points="430.97 0 430.97 325.98 385.67 355.8 385.67 459.79"/>
        <circle class="cls-12" cx="385.67" cy="459.51" r="5.64"/>
      </g>
      <g>
        <polyline class="cls-41" points="648.65 0 648.65 105.91 593.46 161.11 593.46 249.5 593.46 350.44"/>
        <circle class="cls-25" cx="593.46" cy="350.16" r="5.64"/>
      </g>
      <g>
        <polyline class="cls-57" points="617.53 0 617.53 105.91 562.34 161.11 562.34 249.5 562.34 316.21 525.54 353.01 525.54 506.05"/>
        <circle class="cls-26" cx="525.54" cy="505.76" r="5.64"/>
      </g>
      <g>
        <polyline class="cls-65" points="589.94 0 589.94 96.89 536.13 150.69 536.13 234.53 536.13 292.43 488.34 340.22 484.01 468.4"/>
        <path class="cls-31" d="m478.38,467.93c-.11,3.11,2.33,5.72,5.45,5.83,3.11.1,5.72-2.33,5.83-5.45.11-3.11-2.33-5.72-5.45-5.83-3.11-.1-5.72,2.33-5.83,5.45Z"/>
      </g>
      <g>
        <line class="cls-52" x1="563.03" x2="563.03" y2="80.32"/>
        <circle class="cls-28" cx="563.03" cy="80.04" r="5.64"/>
      </g>
      <g>
        <line class="cls-66" x1="532.87" x2="532.87" y2="110.32"/>
        <circle class="cls-15" cx="532.87" cy="110.04" r="5.64"/>
      </g>
      <g>
        <line class="cls-51" x1="360.36" x2="360.36" y2="110.32"/>
        <circle class="cls-8" cx="360.36" cy="110.04" r="5.64"/>
      </g>
      <g>
        <line class="cls-62" x1="454.45" y1="157.09" x2="454.45" y2="395.07"/>
        <circle class="cls-22" cx="454.45" cy="394.79" r="5.64"/>
      </g>
      <g>
        <polyline class="cls-36" points="354.78 403.99 354.78 343.48 413.39 306.96"/>
        <circle class="cls-1" cx="354.78" cy="403.71" r="5.64"/>
      </g>
      <g>
        <polyline class="cls-54" points="451.81 0 451.81 115.31 483.83 147.33 483.83 287.07"/>
        <circle class="cls-9" cx="483.83" cy="286.79" r="5.64"/>
      </g>
      <g>
        <polyline class="cls-42" points="477.14 0 477.14 90.4 511.07 124.33 509.68 186.98"/>
        <path class="cls-5" d="m504.04,186.57c-.07,3.11,2.4,5.69,5.51,5.76s5.69-2.4,5.76-5.51-2.4-5.69-5.51-5.76c-3.11-.07-5.69,2.4-5.76,5.51Z"/>
      </g>
      <g>
        <line class="cls-46" x1="505.97" x2="505.97" y2="57.48"/>
        <circle class="cls-29" cx="505.97" cy="57.2" r="5.64"/>
      </g>
      <g>
        <line class="cls-49" x1="188.16" x2="188.16" y2="57.48"/>
        <circle class="cls-30" cx="188.16" cy="57.2" r="5.64"/>
      </g>
      <g>
        <line class="cls-61" x1="6.49" x2="6.49" y2="57.48"/>
        <circle class="cls-23" cx="6.49" cy="57.2" r="5.64"/>
      </g>
      <g>
        <line class="cls-58" x1="94.23" y1="201.15" x2="94.23" y2="258.64"/>
        <circle class="cls-14" cx="94.23" cy="258.35" r="5.64"/>
      </g>
      <g>
        <line class="cls-44" x1="214.28" x2="214.28" y2="184.88"/>
        <circle class="cls-20" cx="214.28" cy="184.6" r="5.64"/>
      </g>
      <g>
        <polyline class="cls-43" points="82.98 0 82.98 169.83 66.78 186.03 66.78 431.73"/>
        <circle class="cls-13" cx="66.78" cy="431.45" r="5.64"/>
      </g>
      <g>
        <polyline class="cls-40" points="101.48 0 101.48 115.68 121.59 146.22 121.59 323.24"/>
        <path class="cls-32" d="m115.95,322.96c0,3.11,2.53,5.64,5.64,5.64s5.64-2.53,5.64-5.64-2.53-5.64-5.64-5.64-5.64,2.53-5.64,5.64Z"/>
      </g>
      <g>
        <polyline class="cls-35" points="676.95 0 676.95 42.84 736.39 42.84 736.39 372.29"/>
        <circle class="cls-6" cx="736.39" cy="372" r="5.64"/>
      </g>
      <g>
        <polyline class="cls-50" points="713.61 0 713.61 15.99 759.18 15.99 759.18 142.29"/>
        <circle class="cls-16" cx="759.18" cy="142.01" r="5.64"/>
      </g>
      <g>
        <polyline class="cls-39" points="713.61 422.69 713.61 218.55 713.61 179.48 675.74 217.34 675.74 472.36"/>
        <circle class="cls-3" cx="713.61" cy="422.4" r="5.64"/>
        <circle class="cls-7" cx="675.74" cy="472.08" r="5.64"/>
      </g>
      <g>
        <polyline class="cls-60" points="619.14 407.96 619.14 177.57 681.03 115.68 682.95 73.82 713.61 73.82 713.61 126.96 648.45 192.13 648.45 336.21"/>
        <circle class="cls-21" cx="619.14" cy="407.67" r="5.64"/>
        <circle class="cls-10" cx="648.45" cy="335.92" r="5.64"/>
      </g>
    </g>
  </g>
</svg>